<svg width="204" height="204" viewBox="0 0 204 204" fill="none" xmlns="http://www.w3.org/2000/svg">
    <rect x="20" y="20" width="164" height="164" rx="82" fill="#2B2730"/>
    <path d="M82.563 78.0254V71.7672H93.4657V100.5H86.4596V78.0254H82.563ZM101.888 100.815C100.707 100.815 99.7361 100.474 98.9752 99.7915C98.2404 99.083 97.8731 98.2171 97.8731 97.1938C97.8731 96.1442 98.2404 95.2651 98.9752 94.5566C99.7361 93.8482 100.707 93.4939 101.888 93.4939C103.042 93.4939 103.987 93.8482 104.722 94.5566C105.483 95.2651 105.863 96.1442 105.863 97.1938C105.863 98.2171 105.483 99.083 104.722 99.7915C103.987 100.474 103.042 100.815 101.888 100.815ZM101.888 84.7954C100.707 84.7954 99.7361 84.4542 98.9752 83.772C98.2404 83.0635 97.8731 82.1976 97.8731 81.1742C97.8731 80.1246 98.2404 79.2456 98.9752 78.5371C99.7361 77.8286 100.707 77.4744 101.888 77.4744C103.042 77.4744 103.987 77.8286 104.722 78.5371C105.483 79.2456 105.863 80.1246 105.863 81.1742C105.863 82.1976 105.483 83.0635 104.722 83.772C103.987 84.4542 103.042 84.7954 101.888 84.7954ZM108.547 78.0254V71.7672H119.449V100.5H112.443V78.0254H108.547Z" fill="white"/>
    <path d="M53.6601 135.351L56.0414 127.519H59.6231L55.7265 138.5H51.574L47.6774 127.519H51.2788L53.6601 135.351ZM62.7321 126.377C62.1417 126.377 61.6563 126.207 61.2758 125.865C60.9084 125.511 60.7247 125.078 60.7247 124.567C60.7247 124.042 60.9084 123.609 61.2758 123.268C61.6563 122.913 62.1417 122.736 62.7321 122.736C63.3094 122.736 63.7817 122.913 64.1491 123.268C64.5296 123.609 64.7198 124.042 64.7198 124.567C64.7198 125.078 64.5296 125.511 64.1491 125.865C63.7817 126.207 63.3094 126.377 62.7321 126.377ZM64.4049 127.519V138.5H61.0396V127.519H64.4049ZM66.1746 132.99C66.1746 131.861 66.3845 130.871 66.8043 130.018C67.2373 129.165 67.8211 128.509 68.5559 128.05C69.2906 127.591 70.1106 127.361 71.0159 127.361C71.7375 127.361 72.3935 127.512 72.9839 127.814C73.5874 128.116 74.0597 128.522 74.4008 129.034V123.937H77.7661V138.5H74.4008V136.926C74.0859 137.45 73.6333 137.87 73.0429 138.185C72.4656 138.5 71.7899 138.657 71.0159 138.657C70.1106 138.657 69.2906 138.428 68.5559 137.969C67.8211 137.496 67.2373 136.834 66.8043 135.981C66.3845 135.115 66.1746 134.118 66.1746 132.99ZM74.4008 133.009C74.4008 132.17 74.1647 131.507 73.6923 131.022C73.2331 130.536 72.669 130.293 71.9999 130.293C71.3307 130.293 70.76 130.536 70.2877 131.022C69.8285 131.494 69.5989 132.15 69.5989 132.99C69.5989 133.829 69.8285 134.498 70.2877 134.997C70.76 135.482 71.3307 135.725 71.9999 135.725C72.669 135.725 73.2331 135.482 73.6923 134.997C74.1647 134.512 74.4008 133.849 74.4008 133.009ZM90.5524 132.832C90.5524 133.147 90.5327 133.475 90.4934 133.816H82.8772C82.9297 134.498 83.1462 135.023 83.5267 135.391C83.9203 135.745 84.3991 135.922 84.9633 135.922C85.803 135.922 86.3868 135.568 86.7148 134.859H90.2966C90.1129 135.581 89.7783 136.23 89.2929 136.808C88.8206 137.385 88.2236 137.837 87.502 138.165C86.7804 138.493 85.9735 138.657 85.0814 138.657C84.0055 138.657 83.0478 138.428 82.2081 137.969C81.3684 137.509 80.7124 136.853 80.2401 136.001C79.7678 135.148 79.5316 134.151 79.5316 133.009C79.5316 131.868 79.7612 130.871 80.2204 130.018C80.6927 129.165 81.3487 128.509 82.1884 128.05C83.0281 127.591 83.9924 127.361 85.0814 127.361C86.1441 127.361 87.0887 127.584 87.9153 128.03C88.7419 128.476 89.3847 129.113 89.8439 129.939C90.3163 130.766 90.5524 131.73 90.5524 132.832ZM87.1084 131.947C87.1084 131.369 86.9116 130.91 86.518 130.569C86.1244 130.228 85.6324 130.057 85.042 130.057C84.4779 130.057 83.999 130.221 83.6054 130.549C83.2249 130.877 82.9887 131.343 82.8969 131.947H87.1084ZM97.3265 138.657C96.2507 138.657 95.2798 138.428 94.4139 137.969C93.5611 137.509 92.8854 136.853 92.3868 136.001C91.9014 135.148 91.6586 134.151 91.6586 133.009C91.6586 131.881 91.9079 130.89 92.4065 130.038C92.905 129.172 93.5873 128.509 94.4532 128.05C95.3191 127.591 96.29 127.361 97.3659 127.361C98.4417 127.361 99.4126 127.591 100.278 128.05C101.144 128.509 101.827 129.172 102.325 130.038C102.824 130.89 103.073 131.881 103.073 133.009C103.073 134.138 102.817 135.135 102.306 136.001C101.807 136.853 101.118 137.509 100.239 137.969C99.3732 138.428 98.4023 138.657 97.3265 138.657ZM97.3265 135.745C97.9694 135.745 98.5139 135.509 98.9599 135.036C99.4191 134.564 99.6487 133.888 99.6487 133.009C99.6487 132.13 99.4257 131.455 98.9796 130.982C98.5467 130.51 98.0087 130.274 97.3659 130.274C96.7099 130.274 96.1654 130.51 95.7324 130.982C95.2995 131.441 95.083 132.117 95.083 133.009C95.083 133.888 95.2929 134.564 95.7127 135.036C96.1457 135.509 96.6836 135.745 97.3265 135.745ZM108.36 133.009C108.36 131.868 108.589 130.871 109.049 130.018C109.521 129.165 110.17 128.509 110.997 128.05C111.837 127.591 112.794 127.361 113.87 127.361C115.248 127.361 116.396 127.722 117.314 128.444C118.246 129.165 118.856 130.182 119.144 131.494H115.563C115.261 130.654 114.677 130.234 113.811 130.234C113.194 130.234 112.702 130.477 112.335 130.963C111.968 131.435 111.784 132.117 111.784 133.009C111.784 133.901 111.968 134.59 112.335 135.076C112.702 135.548 113.194 135.784 113.811 135.784C114.677 135.784 115.261 135.364 115.563 134.525H119.144C118.856 135.81 118.246 136.821 117.314 137.555C116.383 138.29 115.235 138.657 113.87 138.657C112.794 138.657 111.837 138.428 110.997 137.969C110.17 137.509 109.521 136.853 109.049 136.001C108.589 135.148 108.36 134.151 108.36 133.009ZM120.275 132.99C120.275 131.861 120.485 130.871 120.905 130.018C121.338 129.165 121.922 128.509 122.657 128.05C123.391 127.591 124.211 127.361 125.117 127.361C125.891 127.361 126.566 127.519 127.144 127.833C127.734 128.148 128.187 128.562 128.502 129.073V127.519H131.867V138.5H128.502V136.945C128.174 137.457 127.714 137.87 127.124 138.185C126.547 138.5 125.871 138.657 125.097 138.657C124.205 138.657 123.391 138.428 122.657 137.969C121.922 137.496 121.338 136.834 120.905 135.981C120.485 135.115 120.275 134.118 120.275 132.99ZM128.502 133.009C128.502 132.17 128.265 131.507 127.793 131.022C127.334 130.536 126.77 130.293 126.101 130.293C125.432 130.293 124.861 130.536 124.389 131.022C123.929 131.494 123.7 132.15 123.7 132.99C123.7 133.829 123.929 134.498 124.389 134.997C124.861 135.482 125.432 135.725 126.101 135.725C126.77 135.725 127.334 135.482 127.793 134.997C128.265 134.512 128.502 133.849 128.502 133.009ZM137.667 123.937V138.5H134.302V123.937H137.667ZM143.471 123.937V138.5H140.106V123.937H143.471ZM150.377 138.657C149.419 138.657 148.566 138.493 147.819 138.165C147.071 137.837 146.48 137.391 146.047 136.827C145.614 136.25 145.372 135.607 145.319 134.899H148.645C148.685 135.279 148.862 135.587 149.177 135.824C149.491 136.06 149.878 136.178 150.338 136.178C150.758 136.178 151.079 136.099 151.302 135.942C151.538 135.771 151.656 135.555 151.656 135.292C151.656 134.977 151.492 134.748 151.164 134.603C150.836 134.446 150.305 134.275 149.57 134.092C148.783 133.908 148.127 133.718 147.602 133.521C147.077 133.311 146.625 132.99 146.244 132.557C145.864 132.111 145.674 131.514 145.674 130.766C145.674 130.136 145.844 129.565 146.185 129.054C146.539 128.529 147.051 128.116 147.72 127.814C148.402 127.512 149.209 127.361 150.141 127.361C151.518 127.361 152.601 127.702 153.388 128.384C154.188 129.067 154.648 129.972 154.766 131.1H151.656C151.604 130.72 151.433 130.418 151.145 130.195C150.869 129.972 150.502 129.86 150.042 129.86C149.649 129.86 149.347 129.939 149.137 130.097C148.927 130.241 148.822 130.444 148.822 130.707C148.822 131.022 148.986 131.258 149.314 131.415C149.655 131.573 150.18 131.73 150.889 131.888C151.702 132.097 152.365 132.307 152.876 132.517C153.388 132.714 153.834 133.042 154.215 133.501C154.608 133.947 154.812 134.551 154.825 135.312C154.825 135.955 154.641 136.532 154.274 137.044C153.919 137.542 153.401 137.936 152.719 138.224C152.05 138.513 151.269 138.657 150.377 138.657Z" fill="white"/>
    <circle cx="102" cy="102" r="101" stroke="#2B2730" stroke-width="2"/>
</svg>
